<svg width="63" height="60" viewBox="0 0 63 60" fill="none" xmlns="http://www.w3.org/2000/svg">
<g id="Frame 627646">
<g id="Group">
<g id="Group_2">
<g id="Group_3">
<path id="Vector" fill-rule="evenodd" clip-rule="evenodd" d="M14.5997 34.8281V40.902H13.2331V36.6331L11.4054 39.6872L9.56878 36.6331V40.902H8.21094V34.8281H9.97018L11.4054 37.3005L12.8058 34.8281H14.5997Z" fill="white"/>
<path id="Vector_2" fill-rule="evenodd" clip-rule="evenodd" d="M15.7578 40.902H17.116V34.8281H15.7578V40.902Z" fill="white"/>
<path id="Vector_3" fill-rule="evenodd" clip-rule="evenodd" d="M19.3428 36.0941H17.7031V34.8281H22.3492V36.0941H20.7096V40.902H19.3428V36.0941Z" fill="white"/>
<path id="Vector_4" fill-rule="evenodd" clip-rule="evenodd" d="M22.8518 40.8168V39.5507C23.1336 39.6023 23.8172 39.7218 24.6541 39.7218C25.3545 39.7218 25.7046 39.6277 25.7046 39.2426C25.7046 38.7978 25.4056 38.7379 24.4235 38.2847C23.4668 37.8484 22.7578 37.4633 22.7578 36.4366C22.7578 35.1708 23.5268 34.7344 25.0468 34.7344C25.8243 34.7344 26.388 34.803 26.738 34.8456V36.1115C26.3965 36.0775 25.773 35.9921 25.0811 35.9921C24.2612 35.9921 24.0987 36.0775 24.0987 36.4113C24.0987 36.7532 24.543 36.9246 25.2093 37.2239C26.2087 37.6773 27.0285 38.0536 27.0285 39.2085C27.0285 40.4148 26.2769 40.9793 24.6541 40.9793C24.0138 40.9793 23.4155 40.9108 22.8518 40.8168Z" fill="white"/>
<path id="Vector_5" fill-rule="evenodd" clip-rule="evenodd" d="M27.8516 38.8491V34.8281H29.2097V38.7974C29.2097 39.4902 29.6198 39.73 30.2687 39.73C30.918 39.73 31.3363 39.4902 31.3363 38.7974V34.8281H32.6945V38.8491C32.6945 40.3201 31.7295 40.9874 30.2687 40.9874C28.808 40.9874 27.8516 40.3201 27.8516 38.8491Z" fill="white"/>
<path id="Vector_6" fill-rule="evenodd" clip-rule="evenodd" d="M36.3892 39.7557C36.9358 39.7557 37.1577 39.5589 37.1577 39.0286C37.1577 38.558 36.9526 38.3613 36.4485 38.3613H35.2019V39.7557H36.3892ZM36.2952 37.2833C36.8415 37.2833 37.0385 36.9926 37.0385 36.5904C37.0385 36.1027 36.799 35.9746 36.2952 35.9746H35.2019V37.2833H36.2952ZM33.8438 34.8281H36.4914C37.7301 34.8281 38.4136 35.2815 38.4136 36.3935C38.4136 37.2749 37.9095 37.5482 37.4481 37.7284C37.9948 37.8907 38.5672 38.1903 38.5672 39.2083C38.5672 40.2688 37.9266 40.902 36.5857 40.902H33.8438V34.8281Z" fill="white"/>
<path id="Vector_7" fill-rule="evenodd" clip-rule="evenodd" d="M39.3906 40.902H40.7488V34.8281H39.3906V40.902Z" fill="white"/>
<path id="Vector_8" fill-rule="evenodd" clip-rule="evenodd" d="M41.7505 40.8168V39.5507C42.0323 39.6023 42.716 39.7218 43.5528 39.7218C44.2529 39.7218 44.6031 39.6277 44.6031 39.2426C44.6031 38.7978 44.3044 38.7379 43.3223 38.2847C42.3655 37.8484 41.6562 37.4633 41.6562 36.4366C41.6562 35.1708 42.4255 34.7344 43.9455 34.7344C44.723 34.7344 45.2868 34.803 45.6367 34.8456V36.1115C45.295 36.0775 44.6718 35.9921 43.9799 35.9921C43.1597 35.9921 42.9972 36.0775 42.9972 36.4113C42.9972 36.7532 43.4418 36.9246 44.108 37.2239C45.1075 37.6773 45.9272 38.0536 45.9272 39.2085C45.9272 40.4148 45.1754 40.9793 43.5528 40.9793C42.9122 40.9793 42.314 40.9108 41.7505 40.8168Z" fill="white"/>
<path id="Vector_9" fill-rule="evenodd" clip-rule="evenodd" d="M51.517 34.8281V40.902H50.1592V38.4894H48.0063V40.902H46.6484V34.8281H48.0063V37.2234H50.1592V34.8281H51.517Z" fill="white"/>
<path id="Vector_10" fill-rule="evenodd" clip-rule="evenodd" d="M52.6172 40.902H53.9753V34.8281H52.6172V40.902Z" fill="white"/>
<path id="Vector_11" fill-rule="evenodd" clip-rule="evenodd" d="M20.9828 42.9844V49.0583H19.6159V44.7895L17.7882 47.8435L15.9516 44.7895V49.0583H14.5938V42.9844H16.353L17.7882 45.4565L19.1889 42.9844H20.9828Z" fill="white"/>
<path id="Vector_12" fill-rule="evenodd" clip-rule="evenodd" d="M25.7324 46.0209C25.7324 44.7802 25.5188 44.156 24.5282 44.156C23.5371 44.156 23.3238 44.7802 23.3238 46.0209C23.3238 47.2699 23.5371 47.9027 24.5282 47.9027C25.5188 47.9027 25.7324 47.2699 25.7324 46.0209ZM21.9141 46.0209C21.9141 43.8478 22.7428 42.8984 24.5282 42.8984C26.3134 42.8984 27.1418 43.8478 27.1418 46.0209C27.1418 48.1938 26.3134 49.1433 24.5282 49.1433C22.7428 49.1433 21.9141 48.1938 21.9141 46.0209Z" fill="white"/>
<path id="Vector_13" fill-rule="evenodd" clip-rule="evenodd" d="M29.0074 44.2504H27.3672V42.9844H32.0139V44.2504H30.374V49.0583H29.0074V44.2504Z" fill="white"/>
<path id="Vector_14" fill-rule="evenodd" clip-rule="evenodd" d="M36.0446 46.0209C36.0446 44.7802 35.831 44.156 34.84 44.156C33.8489 44.156 33.6357 44.7802 33.6357 46.0209C33.6357 47.2699 33.8489 47.9027 34.84 47.9027C35.831 47.9027 36.0446 47.2699 36.0446 46.0209ZM32.2266 46.0209C32.2266 43.8478 33.0548 42.8984 34.84 42.8984C36.6252 42.8984 37.4537 43.8478 37.4537 46.0209C37.4537 48.1938 36.6252 49.1433 34.84 49.1433C33.0548 49.1433 32.2266 48.1938 32.2266 46.0209Z" fill="white"/>
<path id="Vector_15" fill-rule="evenodd" clip-rule="evenodd" d="M40.7574 45.7046C41.3721 45.7046 41.5602 45.3969 41.5602 44.9348C41.5602 44.4641 41.3721 44.1564 40.7574 44.1564H39.741V45.7046H40.7574ZM38.3828 42.9844H40.8426C42.1412 42.9844 42.9696 43.4718 42.9696 44.9348C42.9696 45.8756 42.5 46.4835 41.7228 46.6714L43.2172 49.0583H41.6285L40.3473 46.885H39.741V49.0583H38.3828V42.9844Z" fill="white"/>
<path id="Vector_16" fill-rule="evenodd" clip-rule="evenodd" d="M43.7974 48.9809V47.7147C44.0792 47.7661 44.7626 47.8859 45.5997 47.8859C46.2998 47.8859 46.65 47.7916 46.65 47.4067C46.65 46.9619 46.3512 46.9021 45.3692 46.4487C44.4124 46.0123 43.7031 45.6272 43.7031 44.6007C43.7031 43.3347 44.4721 42.8984 45.9924 42.8984C46.7699 42.8984 47.3336 42.9669 47.6836 43.0094V44.2757C47.3419 44.2414 46.7186 44.1562 46.0267 44.1562C45.2065 44.1562 45.0444 44.2414 45.0444 44.575C45.0444 44.9172 45.4885 45.0886 46.1546 45.3881C47.154 45.8412 47.9738 46.2177 47.9738 47.3728C47.9738 48.5785 47.2222 49.1432 45.5997 49.1432C44.9591 49.1432 44.3612 49.0749 43.7974 48.9809Z" fill="white"/>
<path id="Vector_17" fill-rule="evenodd" clip-rule="evenodd" d="M25.2266 10.0774L31.0359 20.1548L36.8449 10.0774L31.0359 0L25.2266 10.0774Z" fill="#ED0000"/>
<path id="Vector_18" fill-rule="evenodd" clip-rule="evenodd" d="M42.6574 20.1406L31.0391 20.1409L36.8484 30.2184H48.4668L42.6574 20.1406Z" fill="#ED0000"/>
<path id="Vector_19" fill-rule="evenodd" clip-rule="evenodd" d="M19.4106 20.1406L31.0289 20.1409L25.2199 30.2184H13.6016L19.4106 20.1406Z" fill="#ED0000"/>
<path id="Vector_20" fill-rule="evenodd" clip-rule="evenodd" d="M0 58.3475H1.87854C3.16803 58.3475 3.97494 57.6052 3.97494 55.9958C3.97494 54.333 3.17451 53.6443 1.9048 53.6443H0V58.3475ZM0.833499 57.5656V54.4256H1.91809C2.71172 54.4256 3.10838 54.8964 3.10838 55.976C3.10838 57.0623 2.69843 57.5656 1.89183 57.5656H0.833499ZM4.70244 58.3475H5.52897V55.9163C5.80681 55.8367 6.14429 55.7572 6.79236 55.7572V55.0355C6.13749 55.0355 5.75396 55.2078 5.46933 55.3268V55.1016H4.70244V58.3475ZM7.8241 54.6313L8.40603 54.0415L7.8241 53.4453L7.2485 54.0415L7.8241 54.6313ZM7.414 58.3475H8.24069V55.1016H7.414V58.3475ZM10.1585 58.3475H10.9524C11.3291 57.7643 12.1362 56.9433 12.1955 55.1016H11.3688C11.3029 56.4462 10.8399 57.175 10.5553 57.5854C10.271 57.175 9.80802 56.4462 9.74188 55.1016H8.91534C8.97467 56.9433 9.78175 57.7643 10.1585 58.3475ZM14.4508 58.4134C15.0726 58.4134 15.4163 58.3537 15.6148 58.3011V57.6185C15.3965 57.6718 15.0133 57.7444 14.5036 57.7444C13.9084 57.7444 13.5184 57.5656 13.485 56.9896H15.7999C15.8064 56.9099 15.8064 56.7641 15.8064 56.6516C15.8064 55.6117 15.4693 55.0355 14.3056 55.0355C13.1811 55.0355 12.6585 55.5981 12.6585 56.7113C12.6585 57.8504 13.3001 58.4134 14.4508 58.4134ZM13.485 56.4527C13.5184 55.9496 13.7035 55.6713 14.2787 55.6713C14.9536 55.6713 14.9997 55.9893 15.0065 56.4527H13.485ZM18.7033 60.0035L20.079 58.0957C20.2375 57.877 21.1637 56.718 21.1637 55.1016H20.3367C20.3367 56.3801 19.7019 57.3208 19.5037 57.6052C19.2722 57.2742 18.6242 56.3602 18.6242 55.1016H17.7971C17.85 56.8105 18.6242 57.6648 19.0207 58.248L18.108 59.5396L18.7033 60.0035ZM23.313 58.4134C24.4306 58.4134 25.0259 57.8239 25.0259 56.7246C25.0259 55.6049 24.4306 55.0355 23.313 55.0355C22.2017 55.0355 21.5998 55.6049 21.5998 56.7246C21.5998 57.8239 22.2017 58.4134 23.313 58.4134ZM23.313 57.6916C22.6714 57.6916 22.4532 57.3536 22.4532 56.718C22.4532 56.0618 22.6714 55.7439 23.313 55.7439C23.9544 55.7439 24.1794 56.0618 24.1794 56.718C24.1794 57.3536 23.9544 57.6916 23.313 57.6916ZM28.842 55.1016H28.0153V57.5325C27.7377 57.612 27.4004 57.6916 27.0694 57.6916C26.7916 57.6916 26.5206 57.5723 26.5206 57.155V55.1016H25.694V57.1948C25.694 58.0559 26.1964 58.4134 26.752 58.4134C27.4066 58.4134 27.7904 58.2415 28.0749 58.122V58.3475H28.842V55.1016ZM29.7416 58.3475H30.5681V55.9163C30.846 55.8367 31.1834 55.7572 31.8315 55.7572V55.0355C31.1766 55.0355 30.7931 55.2078 30.5088 55.3268V55.1016H29.7416V58.3475ZM36.249 53.7567L36.1832 53.6443H34.9728L34.92 53.75C34.4372 54.7238 33.6172 55.87 33.6172 57.7843V58.3408H34.4638V57.8702C34.4638 57.6052 34.4768 57.3671 34.5034 57.1416H36.7191C36.7453 57.3671 36.7586 57.6121 36.7586 57.877V58.3475H37.6048V57.8304C37.6048 55.9163 36.7852 54.684 36.249 53.7567ZM34.6223 56.4132C34.847 55.4791 35.2642 54.8964 35.5881 54.2272C35.9188 54.9094 36.3482 55.4989 36.5865 56.4132H34.6223ZM38.4054 58.3475H39.2321V55.9229C39.424 55.8301 39.8733 55.7637 40.1447 55.7637C40.4492 55.7637 40.6603 55.9096 40.6603 56.3204V58.3475H41.4873V56.2011C41.4873 56.1015 41.4805 56.0091 41.4607 55.9229C41.6394 55.8234 42.1026 55.7572 42.38 55.7637C42.6779 55.7708 42.9026 55.9096 42.9026 56.3204V58.3475H43.7231V56.2077C43.7231 55.3666 43.2333 55.0355 42.6183 55.0355C42.1753 55.0355 41.5269 55.1679 41.2163 55.3729C41.0312 55.1412 40.7135 55.0355 40.3831 55.0355C39.9203 55.0355 39.3446 55.2209 39.173 55.3268V55.1016H38.4054V58.3475ZM46.553 55.0355C46.0507 55.0355 45.6805 55.1877 45.4619 55.2672V53.5115H44.6353V55.2737L44.6417 58.3475H45.4619V58.1287C45.6672 58.2215 45.9645 58.4134 46.553 58.4134C47.4533 58.4134 47.9889 57.7314 47.9889 56.7246C47.9889 55.7174 47.4533 55.0355 46.553 55.0355ZM46.3682 57.6848C45.9645 57.6848 45.6937 57.5922 45.4688 57.5392V55.8963C45.7005 55.8367 45.9645 55.7508 46.3682 55.7508C46.9434 55.7508 47.1619 56.1282 47.1619 56.7246C47.1619 57.3208 46.9301 57.6848 46.3682 57.6848ZM49.1458 54.6313L49.728 54.0415L49.1458 53.4453L48.5706 54.0415L49.1458 54.6313ZM48.736 58.3475H49.5627V55.1016H48.736V58.3475ZM52.0432 58.4134C52.3007 58.4134 52.5787 58.3873 52.7307 58.3608V57.612C52.5984 57.632 52.3934 57.645 52.2079 57.645C51.7849 57.645 51.5865 57.5789 51.5865 57.1813V55.7837H52.6315V55.1016H51.5865V54.2074H50.7663V55.1016H50.1712V55.7837H50.7663V57.3736C50.7663 58.142 51.2091 58.4134 52.0432 58.4134ZM53.8219 54.6313L54.4036 54.0415L53.8219 53.4453L53.2465 54.0415L53.8219 54.6313ZM53.4118 58.3475H54.2389V55.1016H53.4118V58.3475ZM56.6919 58.4134C57.8099 58.4134 58.4051 57.8239 58.4051 56.7246C58.4051 55.6049 57.8099 55.0355 56.6919 55.0355C55.5812 55.0355 54.9788 55.6049 54.9788 56.7246C54.9788 57.8239 55.5812 58.4134 56.6919 58.4134ZM56.6919 57.6916C56.0506 57.6916 55.8324 57.3536 55.8324 56.718C55.8324 56.0618 56.0506 55.7439 56.6919 55.7439C57.3336 55.7439 57.5583 56.0618 57.5583 56.718C57.5583 57.3536 57.3336 57.6916 56.6919 57.6916ZM59.1061 58.3475H59.9328V55.9163C60.2107 55.8367 60.5478 55.7572 60.8787 55.7572C61.1565 55.7572 61.4275 55.8765 61.4275 56.2939V58.3475H62.2542V56.2541C62.2542 55.3929 61.7517 55.0355 61.1964 55.0355C60.541 55.0355 60.1578 55.2078 59.8732 55.3268V55.1016H59.1061V58.3475Z" fill="white"/>
</g>
</g>
</g>
</g>
</svg>
